<?xml version="1.0" encoding="UTF-8" standalone="no"?>
<!-- Created with Inkscape (http://www.inkscape.org/) -->
<svg id="svg2" xmlns:rdf="http://www.w3.org/1999/02/22-rdf-syntax-ns#" xmlns="http://www.w3.org/2000/svg" height="640" width="640" version="1.1" xmlns:cc="http://creativecommons.org/ns#" xmlns:dc="http://purl.org/dc/elements/1.1/" viewBox="0 0 640.00001 640.00001">
 <metadata id="metadata7">
  <rdf:RDF>
   <cc:Work rdf:about="">
    <dc:format>image/svg+xml</dc:format>
    <dc:type rdf:resource="http://purl.org/dc/dcmitype/StillImage"/>
    <dc:title/>
   </cc:Work>
  </rdf:RDF>
 </metadata>
 <g id="layer1" transform="translate(0 -412.36)">
  <path id="path3347" d="m87.996 1018.7v-18.308l23.203-0.519c24.249-0.54244 34.621-1.6835 53.488-5.8844 50.615-11.27 101.86-40.354 135.31-76.79l4.3456-4.7339-5.1098-7.0174c-8.6544-11.885-20.007-30.742-27.084-44.986-19.91-40.077-28.891-75.832-31.317-124.69-1.5715-31.641-4.6549-46.336-13.671-65.156-18.483-38.581-56.793-66.953-98.619-73.036l-3.9844-0.57953v141.1 141.1h-18.281-18.281v-224.66-224.66l22.266 0.53978c23.22 0.56292 33.405 1.4597 49.94 4.3969 56.677 10.068 110.34 36.997 153.64 77.102l7.8761 7.2945 10.405-10.266c34.264-33.805 80.993-61.038 127.9-74.538 25.656-7.384 48.667-10.664 80.553-11.483l21.797-0.55969v18.291 18.291l-23.203 0.53121c-24.596 0.56311-37.962 2.1438-57.422 6.791-47.134 11.256-92.459 36.714-126.78 71.209l-9.1205 9.1675 5.1295 7.1389c27.236 37.905 45.408 79.583 53.373 122.41 3.3678 18.109 4.2674 26.61 5.1948 49.087 0.87017 21.092 1.8352 26.62 7.4655 42.767 2.4945 7.1536 10.272 21.703 15.798 29.553 6.3124 8.967 22.856 24.994 32.328 31.319 17.246 11.516 36.64 18.99 56.218 21.664l4.4531 0.60824v-135.53-135.53h18.281 18.281v224.66 224.66l-23.203-0.519c-24.179-0.5408-37.653-1.9322-57.044-5.8908-53.127-10.846-103.38-36.858-145.19-75.153l-8.4186-7.7113-10.338 10.238c-40.775 40.38-97.944 70.334-154.05 80.717-16.969 3.14-32.556 4.6362-54.8 5.2603l-21.328 0.5984v-18.308z"/>
 </g>
</svg>
